# xmcd
#
# Track frame offsets:
# 150
# 16510
# 27711
# 40928
# 55382
# 68610
# 80916
# 92601
# 106237
# 120854
# 135149
# 148142
# 159251
# 173503
# 185074
# 205374
# 220923
# 233669
# 244753
# 259685
# 272324
# 281696
# 293575
#
# Disc length: 4133 seconds
#
#
# Revision: 0
# Processed by: cddbd v1.5.2PL0 Copyright (c) Steve Scherf et al.
# Submitted via: FreeRIP 2.942 
#
DISCID=3a102317
DTITLE=Smokey Greene - Best of Smokey Greene Disk 2
DYEAR=1900
DGENRE=Bluegrass
TTITLE0=For a Minute There
TTITLE1=Gospel Medley
TTITLE2=One Window Four Walls
TTITLE3=Silvery colo
TTITLE4=Slippers with Wings
TTITLE5=What did you expect Me to Do
TTITLE6=Apple Blossom Time in the birkshires
TTITLE7=Charlies Picture
TTITLE8=Coat of Many colors
TTITLE9=Dianna
TTITLE10=He'll have to move the flowers
TTITLE11=Highway Man
TTITLE12=Cowboy Reincarnation
TTITLE13=I Don't look good Naked Anymore
TTITLE14=He did it like a Man
TTITLE15=Quilt of memories
TTITLE16=Storms Never Last
TTITLE17=This aint my first Rodeo
TTITLE18=When She was Mine
TTITLE19=The First Mrs Jones
TTITLE20=Sunday Morning Christian
TTITLE21=Just Beyond the Moon
TTITLE22=Swan Song
EXTD=
EXTT0=
EXTT1=
EXTT2=
EXTT3=
EXTT4=
EXTT5=
EXTT6=
EXTT7=
EXTT8=
EXTT9=
EXTT10=
EXTT11=
EXTT12=
EXTT13=
EXTT14=
EXTT15=
EXTT16=
EXTT17=
EXTT18=
EXTT19=
EXTT20=
EXTT21=
EXTT22=
PLAYORDER=
